<svg width="18" height="18" viewBox="0 0 18 18" fill="none" xmlns="http://www.w3.org/2000/svg">
<g id="phone">
<path id="Vector 1306" d="M3.5228 1.3401L2.13165 2.73125C0.992925 3.86998 0.680004 5.59562 1.3464 7.06168C3.279 11.3134 6.68658 14.721 10.9383 16.6536C12.4044 17.32 14.13 17.0071 15.2688 15.8683L16.6599 14.4772C17.1134 14.0237 17.1134 13.2885 16.6599 12.8351L14.7885 10.9636C14.4351 10.6102 13.8952 10.5226 13.4481 10.7461L12.4096 11.2654C11.5155 11.7125 10.4357 11.5372 9.72884 10.8304L7.16959 8.27117C6.46277 7.56434 6.28754 6.48452 6.73457 5.59045L7.25386 4.55187C7.47738 4.10483 7.38977 3.56492 7.03635 3.21151L5.16494 1.3401C4.71148 0.886634 3.97627 0.886634 3.5228 1.3401Z" stroke="#444444" stroke-linejoin="round"/>
</g>
</svg>
